<svg xmlns="http://www.w3.org/2000/svg" width="512" height="512" viewBox="0 0 512 512">
  <defs>
    <linearGradient id="bg" x1="0%" y1="0%" x2="100%" y2="100%">
      <stop offset="0%" style="stop-color:#6366f1"/>
      <stop offset="100%" style="stop-color:#4f46e5"/>
    </linearGradient>
  </defs>
  <rect width="512" height="512" rx="76" fill="url(#bg)"/>
  <!-- Book icon -->
  <g transform="translate(256,240)" fill="none" stroke="white" stroke-width="16" stroke-linecap="round" stroke-linejoin="round">
    <path d="M-80,-60 C-80,-60 -40,-80 0,-60 C40,-80 80,-60 80,-60 L80,60 C80,60 40,40 0,60 C-40,40 -80,60 -80,60Z"/>
    <line x1="0" y1="-60" x2="0" y2="60"/>
    <line x1="-50" y1="-30" x2="-15" y2="-30"/>
    <line x1="-50" y1="-5" x2="-15" y2="-5"/>
    <line x1="-50" y1="20" x2="-15" y2="20"/>
    <line x1="15" y1="-30" x2="50" y2="-30"/>
    <line x1="15" y1="-5" x2="50" y2="-5"/>
    <line x1="15" y1="20" x2="50" y2="20"/>
  </g>
  <!-- Text -->
  <text x="256" y="380" text-anchor="middle" font-family="Arial, sans-serif" font-size="48" font-weight="bold" fill="white" opacity="0.9">背单词</text>
</svg>
